<mxfile host="app.diagrams.net" modified="2023-11-26T17:09:14.381Z" agent="Mozilla/5.0 (Macintosh; Intel Mac OS X 10_15_6) AppleWebKit/605.1.15 (KHTML, like Gecko) Version/14.0.3 Safari/605.1.15" etag="ADJKrvGKEHfDTXJYGE6m" version="22.1.4" type="github">
  <diagram id="C5RBs43oDa-KdzZeNtuy" name="Page-1">
    <mxGraphModel dx="2603" dy="827" grid="1" gridSize="10" guides="1" tooltips="1" connect="1" arrows="1" fold="1" page="1" pageScale="1" pageWidth="1169" pageHeight="1654" math="0" shadow="0">
      <root>
        <mxCell id="WIyWlLk6GJQsqaUBKTNV-0" />
        <mxCell id="WIyWlLk6GJQsqaUBKTNV-1" parent="WIyWlLk6GJQsqaUBKTNV-0" />
        <mxCell id="zkfFHV4jXpPFQw0GAbJ--0" value="Menu" style="swimlane;fontStyle=2;align=center;verticalAlign=top;childLayout=stackLayout;horizontal=1;startSize=26;horizontalStack=0;resizeParent=1;resizeLast=0;collapsible=1;marginBottom=0;rounded=0;shadow=0;strokeWidth=1;" parent="WIyWlLk6GJQsqaUBKTNV-1" vertex="1">
          <mxGeometry x="-490" y="450" width="160" height="184" as="geometry">
            <mxRectangle x="230" y="140" width="160" height="26" as="alternateBounds" />
          </mxGeometry>
        </mxCell>
        <mxCell id="zkfFHV4jXpPFQw0GAbJ--4" value="" style="line;html=1;strokeWidth=1;align=left;verticalAlign=middle;spacingTop=-1;spacingLeft=3;spacingRight=3;rotatable=0;labelPosition=right;points=[];portConstraint=eastwest;" parent="zkfFHV4jXpPFQw0GAbJ--0" vertex="1">
          <mxGeometry y="26" width="160" height="8" as="geometry" />
        </mxCell>
        <mxCell id="Uabi-TmTKqP2fMyp2ywP-6" value="+ main_menu()" style="text;html=1;align=left;verticalAlign=middle;resizable=0;points=[];autosize=1;strokeColor=none;fillColor=none;" vertex="1" parent="zkfFHV4jXpPFQw0GAbJ--0">
          <mxGeometry y="34" width="160" height="30" as="geometry" />
        </mxCell>
        <mxCell id="Uabi-TmTKqP2fMyp2ywP-8" value="+ launch_notepad()" style="text;html=1;align=left;verticalAlign=middle;resizable=0;points=[];autosize=1;strokeColor=none;fillColor=none;" vertex="1" parent="zkfFHV4jXpPFQw0GAbJ--0">
          <mxGeometry y="64" width="160" height="30" as="geometry" />
        </mxCell>
        <mxCell id="Uabi-TmTKqP2fMyp2ywP-166" value="+ launch_file_sorter()" style="text;html=1;align=left;verticalAlign=middle;resizable=0;points=[];autosize=1;strokeColor=none;fillColor=none;" vertex="1" parent="zkfFHV4jXpPFQw0GAbJ--0">
          <mxGeometry y="94" width="160" height="30" as="geometry" />
        </mxCell>
        <mxCell id="Uabi-TmTKqP2fMyp2ywP-11" value="+ launch_file_sorter()" style="text;html=1;align=left;verticalAlign=middle;resizable=0;points=[];autosize=1;strokeColor=none;fillColor=none;" vertex="1" parent="zkfFHV4jXpPFQw0GAbJ--0">
          <mxGeometry y="124" width="160" height="30" as="geometry" />
        </mxCell>
        <mxCell id="Uabi-TmTKqP2fMyp2ywP-7" value="+ launch_address_book()" style="text;html=1;align=left;verticalAlign=middle;resizable=0;points=[];autosize=1;strokeColor=none;fillColor=none;" vertex="1" parent="zkfFHV4jXpPFQw0GAbJ--0">
          <mxGeometry y="154" width="160" height="30" as="geometry" />
        </mxCell>
        <mxCell id="zkfFHV4jXpPFQw0GAbJ--6" value="Note" style="swimlane;fontStyle=0;align=center;verticalAlign=top;childLayout=stackLayout;horizontal=1;startSize=26;horizontalStack=0;resizeParent=1;resizeLast=0;collapsible=1;marginBottom=0;rounded=0;shadow=0;strokeWidth=1;" parent="WIyWlLk6GJQsqaUBKTNV-1" vertex="1">
          <mxGeometry x="-640" y="690" width="160" height="150" as="geometry">
            <mxRectangle x="130" y="380" width="160" height="26" as="alternateBounds" />
          </mxGeometry>
        </mxCell>
        <mxCell id="zkfFHV4jXpPFQw0GAbJ--7" value="+ note" style="text;align=left;verticalAlign=top;spacingLeft=4;spacingRight=4;overflow=hidden;rotatable=0;points=[[0,0.5],[1,0.5]];portConstraint=eastwest;" parent="zkfFHV4jXpPFQw0GAbJ--6" vertex="1">
          <mxGeometry y="26" width="160" height="26" as="geometry" />
        </mxCell>
        <mxCell id="zkfFHV4jXpPFQw0GAbJ--9" value="" style="line;html=1;strokeWidth=1;align=left;verticalAlign=middle;spacingTop=-1;spacingLeft=3;spacingRight=3;rotatable=0;labelPosition=right;points=[];portConstraint=eastwest;" parent="zkfFHV4jXpPFQw0GAbJ--6" vertex="1">
          <mxGeometry y="52" width="160" height="8" as="geometry" />
        </mxCell>
        <mxCell id="zkfFHV4jXpPFQw0GAbJ--10" value="+ note()" style="text;align=left;verticalAlign=top;spacingLeft=4;spacingRight=4;overflow=hidden;rotatable=0;points=[[0,0.5],[1,0.5]];portConstraint=eastwest;fontStyle=0" parent="zkfFHV4jXpPFQw0GAbJ--6" vertex="1">
          <mxGeometry y="60" width="160" height="26" as="geometry" />
        </mxCell>
        <mxCell id="zkfFHV4jXpPFQw0GAbJ--11" value="+ add_tag()" style="text;align=left;verticalAlign=top;spacingLeft=4;spacingRight=4;overflow=hidden;rotatable=0;points=[[0,0.5],[1,0.5]];portConstraint=eastwest;" parent="zkfFHV4jXpPFQw0GAbJ--6" vertex="1">
          <mxGeometry y="86" width="160" height="26" as="geometry" />
        </mxCell>
        <mxCell id="Uabi-TmTKqP2fMyp2ywP-159" value="+ repr()" style="text;align=left;verticalAlign=top;spacingLeft=4;spacingRight=4;overflow=hidden;rotatable=0;points=[[0,0.5],[1,0.5]];portConstraint=eastwest;" vertex="1" parent="zkfFHV4jXpPFQw0GAbJ--6">
          <mxGeometry y="112" width="160" height="26" as="geometry" />
        </mxCell>
        <mxCell id="zkfFHV4jXpPFQw0GAbJ--13" value="Sorted" style="swimlane;fontStyle=0;align=center;verticalAlign=top;childLayout=stackLayout;horizontal=1;startSize=40;horizontalStack=0;resizeParent=1;resizeLast=0;collapsible=1;marginBottom=0;rounded=0;shadow=0;strokeWidth=1;" parent="WIyWlLk6GJQsqaUBKTNV-1" vertex="1">
          <mxGeometry x="-240" y="70" width="220" height="360" as="geometry">
            <mxRectangle x="340" y="380" width="170" height="26" as="alternateBounds" />
          </mxGeometry>
        </mxCell>
        <mxCell id="zkfFHV4jXpPFQw0GAbJ--15" value="" style="line;html=1;strokeWidth=1;align=left;verticalAlign=middle;spacingTop=-1;spacingLeft=3;spacingRight=3;rotatable=0;labelPosition=right;points=[];portConstraint=eastwest;" parent="zkfFHV4jXpPFQw0GAbJ--13" vertex="1">
          <mxGeometry y="40" width="220" height="8" as="geometry" />
        </mxCell>
        <mxCell id="Uabi-TmTKqP2fMyp2ywP-143" value="+ init()" style="text;align=left;verticalAlign=top;spacingLeft=4;spacingRight=4;overflow=hidden;rotatable=0;points=[[0,0.5],[1,0.5]];portConstraint=eastwest;" vertex="1" parent="zkfFHV4jXpPFQw0GAbJ--13">
          <mxGeometry y="48" width="220" height="26" as="geometry" />
        </mxCell>
        <mxCell id="Uabi-TmTKqP2fMyp2ywP-145" value="+ create_directory()" style="text;align=left;verticalAlign=top;spacingLeft=4;spacingRight=4;overflow=hidden;rotatable=0;points=[[0,0.5],[1,0.5]];portConstraint=eastwest;fontStyle=0" vertex="1" parent="zkfFHV4jXpPFQw0GAbJ--13">
          <mxGeometry y="74" width="220" height="30" as="geometry" />
        </mxCell>
        <mxCell id="Uabi-TmTKqP2fMyp2ywP-149" value="+ create_folder()&#xa;" style="text;align=left;verticalAlign=top;spacingLeft=4;spacingRight=4;overflow=hidden;rotatable=0;points=[[0,0.5],[1,0.5]];portConstraint=eastwest;rounded=0;shadow=0;html=0;" vertex="1" parent="zkfFHV4jXpPFQw0GAbJ--13">
          <mxGeometry y="104" width="220" height="32" as="geometry" />
        </mxCell>
        <mxCell id="Uabi-TmTKqP2fMyp2ywP-148" value="+  sort_file()" style="text;align=left;verticalAlign=top;spacingLeft=4;spacingRight=4;overflow=hidden;rotatable=0;points=[[0,0.5],[1,0.5]];portConstraint=eastwest;" vertex="1" parent="zkfFHV4jXpPFQw0GAbJ--13">
          <mxGeometry y="136" width="220" height="26" as="geometry" />
        </mxCell>
        <mxCell id="Uabi-TmTKqP2fMyp2ywP-147" value="+ create_list_of_sorted_files()" style="text;align=left;verticalAlign=top;spacingLeft=4;spacingRight=4;overflow=hidden;rotatable=0;points=[[0,0.5],[1,0.5]];portConstraint=eastwest;rounded=0;shadow=0;html=0;" vertex="1" parent="zkfFHV4jXpPFQw0GAbJ--13">
          <mxGeometry y="162" width="220" height="28" as="geometry" />
        </mxCell>
        <mxCell id="Uabi-TmTKqP2fMyp2ywP-146" value="+ get_list_of_ext()" style="text;align=left;verticalAlign=top;spacingLeft=4;spacingRight=4;overflow=hidden;rotatable=0;points=[[0,0.5],[1,0.5]];portConstraint=eastwest;fontStyle=0" vertex="1" parent="zkfFHV4jXpPFQw0GAbJ--13">
          <mxGeometry y="190" width="220" height="22" as="geometry" />
        </mxCell>
        <mxCell id="Uabi-TmTKqP2fMyp2ywP-144" value="+ get_list_unknown_ext()" style="text;align=left;verticalAlign=top;spacingLeft=4;spacingRight=4;overflow=hidden;rotatable=0;points=[[0,0.5],[1,0.5]];portConstraint=eastwest;fontStyle=0" vertex="1" parent="zkfFHV4jXpPFQw0GAbJ--13">
          <mxGeometry y="212" width="220" height="30" as="geometry" />
        </mxCell>
        <mxCell id="Uabi-TmTKqP2fMyp2ywP-152" value="+ normalize()" style="text;align=left;verticalAlign=top;spacingLeft=4;spacingRight=4;overflow=hidden;rotatable=0;points=[[0,0.5],[1,0.5]];portConstraint=eastwest;" vertex="1" parent="zkfFHV4jXpPFQw0GAbJ--13">
          <mxGeometry y="242" width="220" height="26" as="geometry" />
        </mxCell>
        <mxCell id="Uabi-TmTKqP2fMyp2ywP-153" value="+ rename_files_in_folder()" style="text;align=left;verticalAlign=top;spacingLeft=4;spacingRight=4;overflow=hidden;rotatable=0;points=[[0,0.5],[1,0.5]];portConstraint=eastwest;fontStyle=0" vertex="1" parent="zkfFHV4jXpPFQw0GAbJ--13">
          <mxGeometry y="268" width="220" height="30" as="geometry" />
        </mxCell>
        <mxCell id="Uabi-TmTKqP2fMyp2ywP-157" value="+ rename_all_files_in_all_folders()" style="text;align=left;verticalAlign=top;spacingLeft=4;spacingRight=4;overflow=hidden;rotatable=0;points=[[0,0.5],[1,0.5]];portConstraint=eastwest;fontStyle=0" vertex="1" parent="zkfFHV4jXpPFQw0GAbJ--13">
          <mxGeometry y="298" width="220" height="22" as="geometry" />
        </mxCell>
        <mxCell id="Uabi-TmTKqP2fMyp2ywP-156" value="+ run()" style="text;align=left;verticalAlign=top;spacingLeft=4;spacingRight=4;overflow=hidden;rotatable=0;points=[[0,0.5],[1,0.5]];portConstraint=eastwest;rounded=0;shadow=0;html=0;" vertex="1" parent="zkfFHV4jXpPFQw0GAbJ--13">
          <mxGeometry y="320" width="220" height="32" as="geometry" />
        </mxCell>
        <mxCell id="zkfFHV4jXpPFQw0GAbJ--17" value="Addressbook(UserDict)" style="swimlane;fontStyle=0;align=center;verticalAlign=top;childLayout=stackLayout;horizontal=1;startSize=26;horizontalStack=0;resizeParent=1;resizeLast=0;collapsible=1;marginBottom=0;rounded=0;shadow=0;strokeWidth=1;" parent="WIyWlLk6GJQsqaUBKTNV-1" vertex="1">
          <mxGeometry x="-260" y="690" width="160" height="450" as="geometry">
            <mxRectangle x="550" y="140" width="160" height="26" as="alternateBounds" />
          </mxGeometry>
        </mxCell>
        <mxCell id="zkfFHV4jXpPFQw0GAbJ--18" value="Street" style="text;align=left;verticalAlign=top;spacingLeft=4;spacingRight=4;overflow=hidden;rotatable=0;points=[[0,0.5],[1,0.5]];portConstraint=eastwest;" parent="zkfFHV4jXpPFQw0GAbJ--17" vertex="1">
          <mxGeometry y="26" width="160" height="26" as="geometry" />
        </mxCell>
        <mxCell id="zkfFHV4jXpPFQw0GAbJ--19" value="City" style="text;align=left;verticalAlign=top;spacingLeft=4;spacingRight=4;overflow=hidden;rotatable=0;points=[[0,0.5],[1,0.5]];portConstraint=eastwest;rounded=0;shadow=0;html=0;" parent="zkfFHV4jXpPFQw0GAbJ--17" vertex="1">
          <mxGeometry y="52" width="160" height="26" as="geometry" />
        </mxCell>
        <mxCell id="zkfFHV4jXpPFQw0GAbJ--20" value="State" style="text;align=left;verticalAlign=top;spacingLeft=4;spacingRight=4;overflow=hidden;rotatable=0;points=[[0,0.5],[1,0.5]];portConstraint=eastwest;rounded=0;shadow=0;html=0;" parent="zkfFHV4jXpPFQw0GAbJ--17" vertex="1">
          <mxGeometry y="78" width="160" height="26" as="geometry" />
        </mxCell>
        <mxCell id="zkfFHV4jXpPFQw0GAbJ--21" value="Postal Code" style="text;align=left;verticalAlign=top;spacingLeft=4;spacingRight=4;overflow=hidden;rotatable=0;points=[[0,0.5],[1,0.5]];portConstraint=eastwest;rounded=0;shadow=0;html=0;" parent="zkfFHV4jXpPFQw0GAbJ--17" vertex="1">
          <mxGeometry y="104" width="160" height="26" as="geometry" />
        </mxCell>
        <mxCell id="zkfFHV4jXpPFQw0GAbJ--22" value="Country" style="text;align=left;verticalAlign=top;spacingLeft=4;spacingRight=4;overflow=hidden;rotatable=0;points=[[0,0.5],[1,0.5]];portConstraint=eastwest;rounded=0;shadow=0;html=0;" parent="zkfFHV4jXpPFQw0GAbJ--17" vertex="1">
          <mxGeometry y="130" width="160" height="26" as="geometry" />
        </mxCell>
        <mxCell id="zkfFHV4jXpPFQw0GAbJ--23" value="" style="line;html=1;strokeWidth=1;align=left;verticalAlign=middle;spacingTop=-1;spacingLeft=3;spacingRight=3;rotatable=0;labelPosition=right;points=[];portConstraint=eastwest;" parent="zkfFHV4jXpPFQw0GAbJ--17" vertex="1">
          <mxGeometry y="156" width="160" height="8" as="geometry" />
        </mxCell>
        <mxCell id="zkfFHV4jXpPFQw0GAbJ--24" value="+ list_contacts()" style="text;align=left;verticalAlign=top;spacingLeft=4;spacingRight=4;overflow=hidden;rotatable=0;points=[[0,0.5],[1,0.5]];portConstraint=eastwest;" parent="zkfFHV4jXpPFQw0GAbJ--17" vertex="1">
          <mxGeometry y="164" width="160" height="26" as="geometry" />
        </mxCell>
        <mxCell id="zkfFHV4jXpPFQw0GAbJ--25" value="+ add_record()" style="text;align=left;verticalAlign=top;spacingLeft=4;spacingRight=4;overflow=hidden;rotatable=0;points=[[0,0.5],[1,0.5]];portConstraint=eastwest;" parent="zkfFHV4jXpPFQw0GAbJ--17" vertex="1">
          <mxGeometry y="190" width="160" height="26" as="geometry" />
        </mxCell>
        <mxCell id="Uabi-TmTKqP2fMyp2ywP-50" value="+ get_contact()" style="text;align=left;verticalAlign=top;spacingLeft=4;spacingRight=4;overflow=hidden;rotatable=0;points=[[0,0.5],[1,0.5]];portConstraint=eastwest;rounded=0;shadow=0;html=0;" vertex="1" parent="zkfFHV4jXpPFQw0GAbJ--17">
          <mxGeometry y="216" width="160" height="26" as="geometry" />
        </mxCell>
        <mxCell id="Uabi-TmTKqP2fMyp2ywP-51" value="+ remove_contact()" style="text;align=left;verticalAlign=top;spacingLeft=4;spacingRight=4;overflow=hidden;rotatable=0;points=[[0,0.5],[1,0.5]];portConstraint=eastwest;rounded=0;shadow=0;html=0;" vertex="1" parent="zkfFHV4jXpPFQw0GAbJ--17">
          <mxGeometry y="242" width="160" height="26" as="geometry" />
        </mxCell>
        <mxCell id="Uabi-TmTKqP2fMyp2ywP-53" value="+ iter()" style="text;align=left;verticalAlign=top;spacingLeft=4;spacingRight=4;overflow=hidden;rotatable=0;points=[[0,0.5],[1,0.5]];portConstraint=eastwest;rounded=0;shadow=0;html=0;" vertex="1" parent="zkfFHV4jXpPFQw0GAbJ--17">
          <mxGeometry y="268" width="160" height="26" as="geometry" />
        </mxCell>
        <mxCell id="Uabi-TmTKqP2fMyp2ywP-52" value="+ save_to_file()" style="text;align=left;verticalAlign=top;spacingLeft=4;spacingRight=4;overflow=hidden;rotatable=0;points=[[0,0.5],[1,0.5]];portConstraint=eastwest;rounded=0;shadow=0;html=0;" vertex="1" parent="zkfFHV4jXpPFQw0GAbJ--17">
          <mxGeometry y="294" width="160" height="26" as="geometry" />
        </mxCell>
        <mxCell id="Uabi-TmTKqP2fMyp2ywP-54" value="+ load_from_file()" style="text;align=left;verticalAlign=top;spacingLeft=4;spacingRight=4;overflow=hidden;rotatable=0;points=[[0,0.5],[1,0.5]];portConstraint=eastwest;" vertex="1" parent="zkfFHV4jXpPFQw0GAbJ--17">
          <mxGeometry y="320" width="160" height="26" as="geometry" />
        </mxCell>
        <mxCell id="Uabi-TmTKqP2fMyp2ywP-59" value="+ search_by_number()" style="text;align=left;verticalAlign=top;spacingLeft=4;spacingRight=4;overflow=hidden;rotatable=0;points=[[0,0.5],[1,0.5]];portConstraint=eastwest;rounded=0;shadow=0;html=0;" vertex="1" parent="zkfFHV4jXpPFQw0GAbJ--17">
          <mxGeometry y="346" width="160" height="26" as="geometry" />
        </mxCell>
        <mxCell id="Uabi-TmTKqP2fMyp2ywP-58" value="+ serach_by_name ()" style="text;align=left;verticalAlign=top;spacingLeft=4;spacingRight=4;overflow=hidden;rotatable=0;points=[[0,0.5],[1,0.5]];portConstraint=eastwest;rounded=0;shadow=0;html=0;" vertex="1" parent="zkfFHV4jXpPFQw0GAbJ--17">
          <mxGeometry y="372" width="160" height="26" as="geometry" />
        </mxCell>
        <mxCell id="Uabi-TmTKqP2fMyp2ywP-57" value="+ birthday_contacts()" style="text;align=left;verticalAlign=top;spacingLeft=4;spacingRight=4;overflow=hidden;rotatable=0;points=[[0,0.5],[1,0.5]];portConstraint=eastwest;rounded=0;shadow=0;html=0;" vertex="1" parent="zkfFHV4jXpPFQw0GAbJ--17">
          <mxGeometry y="398" width="160" height="26" as="geometry" />
        </mxCell>
        <mxCell id="Uabi-TmTKqP2fMyp2ywP-56" value="+ run()" style="text;align=left;verticalAlign=top;spacingLeft=4;spacingRight=4;overflow=hidden;rotatable=0;points=[[0,0.5],[1,0.5]];portConstraint=eastwest;rounded=0;shadow=0;html=0;" vertex="1" parent="zkfFHV4jXpPFQw0GAbJ--17">
          <mxGeometry y="424" width="160" height="26" as="geometry" />
        </mxCell>
        <mxCell id="Uabi-TmTKqP2fMyp2ywP-1" value="" style="endArrow=classic;html=1;rounded=0;entryX=0.25;entryY=0;entryDx=0;entryDy=0;" edge="1" parent="WIyWlLk6GJQsqaUBKTNV-1">
          <mxGeometry width="50" height="50" relative="1" as="geometry">
            <mxPoint x="-490" y="530" as="sourcePoint" />
            <mxPoint x="-550" y="690" as="targetPoint" />
          </mxGeometry>
        </mxCell>
        <mxCell id="Uabi-TmTKqP2fMyp2ywP-3" value="" style="endArrow=classic;html=1;rounded=0;entryX=0;entryY=0.25;entryDx=0;entryDy=0;exitX=0.988;exitY=0.767;exitDx=0;exitDy=0;exitPerimeter=0;" edge="1" parent="WIyWlLk6GJQsqaUBKTNV-1" source="Uabi-TmTKqP2fMyp2ywP-11" target="zkfFHV4jXpPFQw0GAbJ--13">
          <mxGeometry width="50" height="50" relative="1" as="geometry">
            <mxPoint x="-220" y="700" as="sourcePoint" />
            <mxPoint x="-130" y="810" as="targetPoint" />
          </mxGeometry>
        </mxCell>
        <mxCell id="Uabi-TmTKqP2fMyp2ywP-4" value="" style="endArrow=classic;html=1;rounded=0;entryX=-0.025;entryY=0.069;entryDx=0;entryDy=0;entryPerimeter=0;exitX=0.994;exitY=0.633;exitDx=0;exitDy=0;exitPerimeter=0;" edge="1" parent="WIyWlLk6GJQsqaUBKTNV-1" source="Uabi-TmTKqP2fMyp2ywP-7" target="zkfFHV4jXpPFQw0GAbJ--17">
          <mxGeometry width="50" height="50" relative="1" as="geometry">
            <mxPoint x="-340" y="530" as="sourcePoint" />
            <mxPoint x="-60" y="611" as="targetPoint" />
          </mxGeometry>
        </mxCell>
        <mxCell id="Uabi-TmTKqP2fMyp2ywP-12" value="" style="endArrow=classic;html=1;rounded=0;exitX=1.006;exitY=0.033;exitDx=0;exitDy=0;exitPerimeter=0;entryX=0.019;entryY=0.028;entryDx=0;entryDy=0;entryPerimeter=0;" edge="1" parent="WIyWlLk6GJQsqaUBKTNV-1" source="zkfFHV4jXpPFQw0GAbJ--17" target="Uabi-TmTKqP2fMyp2ywP-13">
          <mxGeometry width="50" height="50" relative="1" as="geometry">
            <mxPoint x="-100" y="810" as="sourcePoint" />
            <mxPoint x="-10" y="810" as="targetPoint" />
            <Array as="points">
              <mxPoint x="-20" y="790" />
            </Array>
          </mxGeometry>
        </mxCell>
        <mxCell id="Uabi-TmTKqP2fMyp2ywP-13" value="Record" style="swimlane;fontStyle=0;align=center;verticalAlign=top;childLayout=stackLayout;horizontal=1;startSize=26;horizontalStack=0;resizeParent=1;resizeLast=0;collapsible=1;marginBottom=0;rounded=0;shadow=0;strokeWidth=1;" vertex="1" parent="WIyWlLk6GJQsqaUBKTNV-1">
          <mxGeometry x="10" y="800" width="160" height="360" as="geometry">
            <mxRectangle x="130" y="380" width="160" height="26" as="alternateBounds" />
          </mxGeometry>
        </mxCell>
        <mxCell id="Uabi-TmTKqP2fMyp2ywP-14" value="+ name" style="text;align=left;verticalAlign=top;spacingLeft=4;spacingRight=4;overflow=hidden;rotatable=0;points=[[0,0.5],[1,0.5]];portConstraint=eastwest;" vertex="1" parent="Uabi-TmTKqP2fMyp2ywP-13">
          <mxGeometry y="26" width="160" height="26" as="geometry" />
        </mxCell>
        <mxCell id="Uabi-TmTKqP2fMyp2ywP-15" value="+ address&#xa;" style="text;align=left;verticalAlign=top;spacingLeft=4;spacingRight=4;overflow=hidden;rotatable=0;points=[[0,0.5],[1,0.5]];portConstraint=eastwest;rounded=0;shadow=0;html=0;" vertex="1" parent="Uabi-TmTKqP2fMyp2ywP-13">
          <mxGeometry y="52" width="160" height="20" as="geometry" />
        </mxCell>
        <mxCell id="Uabi-TmTKqP2fMyp2ywP-17" value="+ email" style="text;align=left;verticalAlign=top;spacingLeft=4;spacingRight=4;overflow=hidden;rotatable=0;points=[[0,0.5],[1,0.5]];portConstraint=eastwest;fontStyle=0" vertex="1" parent="Uabi-TmTKqP2fMyp2ywP-13">
          <mxGeometry y="72" width="160" height="22" as="geometry" />
        </mxCell>
        <mxCell id="Uabi-TmTKqP2fMyp2ywP-20" value="+ phones" style="text;align=left;verticalAlign=top;spacingLeft=4;spacingRight=4;overflow=hidden;rotatable=0;points=[[0,0.5],[1,0.5]];portConstraint=eastwest;fontStyle=0" vertex="1" parent="Uabi-TmTKqP2fMyp2ywP-13">
          <mxGeometry y="94" width="160" height="20" as="geometry" />
        </mxCell>
        <mxCell id="Uabi-TmTKqP2fMyp2ywP-28" value="+ birthday" style="text;align=left;verticalAlign=top;spacingLeft=4;spacingRight=4;overflow=hidden;rotatable=0;points=[[0,0.5],[1,0.5]];portConstraint=eastwest;fontStyle=0" vertex="1" parent="Uabi-TmTKqP2fMyp2ywP-13">
          <mxGeometry y="114" width="160" height="26" as="geometry" />
        </mxCell>
        <mxCell id="Uabi-TmTKqP2fMyp2ywP-16" value="" style="line;html=1;strokeWidth=1;align=left;verticalAlign=middle;spacingTop=-1;spacingLeft=3;spacingRight=3;rotatable=0;labelPosition=right;points=[];portConstraint=eastwest;" vertex="1" parent="Uabi-TmTKqP2fMyp2ywP-13">
          <mxGeometry y="140" width="160" height="8" as="geometry" />
        </mxCell>
        <mxCell id="Uabi-TmTKqP2fMyp2ywP-29" value="+ add_phone()" style="text;html=1;align=left;verticalAlign=middle;resizable=0;points=[];autosize=1;strokeColor=none;fillColor=none;" vertex="1" parent="Uabi-TmTKqP2fMyp2ywP-13">
          <mxGeometry y="148" width="160" height="30" as="geometry" />
        </mxCell>
        <mxCell id="Uabi-TmTKqP2fMyp2ywP-41" value="+ remove_phone()" style="text;align=left;verticalAlign=top;spacingLeft=4;spacingRight=4;overflow=hidden;rotatable=0;points=[[0,0.5],[1,0.5]];portConstraint=eastwest;" vertex="1" parent="Uabi-TmTKqP2fMyp2ywP-13">
          <mxGeometry y="178" width="160" height="26" as="geometry" />
        </mxCell>
        <mxCell id="Uabi-TmTKqP2fMyp2ywP-45" value="+ edit_phone()" style="text;align=left;verticalAlign=top;spacingLeft=4;spacingRight=4;overflow=hidden;rotatable=0;points=[[0,0.5],[1,0.5]];portConstraint=eastwest;fontStyle=0" vertex="1" parent="Uabi-TmTKqP2fMyp2ywP-13">
          <mxGeometry y="204" width="160" height="26" as="geometry" />
        </mxCell>
        <mxCell id="Uabi-TmTKqP2fMyp2ywP-44" value="+ edit_name()" style="text;align=left;verticalAlign=top;spacingLeft=4;spacingRight=4;overflow=hidden;rotatable=0;points=[[0,0.5],[1,0.5]];portConstraint=eastwest;fontStyle=0" vertex="1" parent="Uabi-TmTKqP2fMyp2ywP-13">
          <mxGeometry y="230" width="160" height="20" as="geometry" />
        </mxCell>
        <mxCell id="Uabi-TmTKqP2fMyp2ywP-43" value="+ edit_email()" style="text;align=left;verticalAlign=top;spacingLeft=4;spacingRight=4;overflow=hidden;rotatable=0;points=[[0,0.5],[1,0.5]];portConstraint=eastwest;fontStyle=0" vertex="1" parent="Uabi-TmTKqP2fMyp2ywP-13">
          <mxGeometry y="250" width="160" height="22" as="geometry" />
        </mxCell>
        <mxCell id="Uabi-TmTKqP2fMyp2ywP-42" value="+ edit_address()" style="text;align=left;verticalAlign=top;spacingLeft=4;spacingRight=4;overflow=hidden;rotatable=0;points=[[0,0.5],[1,0.5]];portConstraint=eastwest;rounded=0;shadow=0;html=0;" vertex="1" parent="Uabi-TmTKqP2fMyp2ywP-13">
          <mxGeometry y="272" width="160" height="20" as="geometry" />
        </mxCell>
        <mxCell id="Uabi-TmTKqP2fMyp2ywP-46" value="+  edit_birthday()" style="text;align=left;verticalAlign=top;spacingLeft=4;spacingRight=4;overflow=hidden;rotatable=0;points=[[0,0.5],[1,0.5]];portConstraint=eastwest;" vertex="1" parent="Uabi-TmTKqP2fMyp2ywP-13">
          <mxGeometry y="292" width="160" height="26" as="geometry" />
        </mxCell>
        <mxCell id="Uabi-TmTKqP2fMyp2ywP-47" value="+ days_to_birthday()&#xa;" style="text;align=left;verticalAlign=top;spacingLeft=4;spacingRight=4;overflow=hidden;rotatable=0;points=[[0,0.5],[1,0.5]];portConstraint=eastwest;rounded=0;shadow=0;html=0;" vertex="1" parent="Uabi-TmTKqP2fMyp2ywP-13">
          <mxGeometry y="318" width="160" height="32" as="geometry" />
        </mxCell>
        <mxCell id="Uabi-TmTKqP2fMyp2ywP-60" value="Phone(Field)" style="swimlane;fontStyle=0;align=center;verticalAlign=top;childLayout=stackLayout;horizontal=1;startSize=26;horizontalStack=0;resizeParent=1;resizeLast=0;collapsible=1;marginBottom=0;rounded=0;shadow=0;strokeWidth=1;" vertex="1" parent="WIyWlLk6GJQsqaUBKTNV-1">
          <mxGeometry x="80" y="420" width="160" height="180" as="geometry">
            <mxRectangle x="130" y="380" width="160" height="26" as="alternateBounds" />
          </mxGeometry>
        </mxCell>
        <mxCell id="Uabi-TmTKqP2fMyp2ywP-61" value="+ phone" style="text;align=left;verticalAlign=top;spacingLeft=4;spacingRight=4;overflow=hidden;rotatable=0;points=[[0,0.5],[1,0.5]];portConstraint=eastwest;" vertex="1" parent="Uabi-TmTKqP2fMyp2ywP-60">
          <mxGeometry y="26" width="160" height="26" as="geometry" />
        </mxCell>
        <mxCell id="Uabi-TmTKqP2fMyp2ywP-66" value="" style="line;html=1;strokeWidth=1;align=left;verticalAlign=middle;spacingTop=-1;spacingLeft=3;spacingRight=3;rotatable=0;labelPosition=right;points=[];portConstraint=eastwest;" vertex="1" parent="Uabi-TmTKqP2fMyp2ywP-60">
          <mxGeometry y="52" width="160" height="8" as="geometry" />
        </mxCell>
        <mxCell id="Uabi-TmTKqP2fMyp2ywP-67" value="+ init()" style="text;html=1;align=left;verticalAlign=middle;resizable=0;points=[];autosize=1;strokeColor=none;fillColor=none;" vertex="1" parent="Uabi-TmTKqP2fMyp2ywP-60">
          <mxGeometry y="60" width="160" height="30" as="geometry" />
        </mxCell>
        <mxCell id="Uabi-TmTKqP2fMyp2ywP-69" value="+ repr()" style="text;align=left;verticalAlign=top;spacingLeft=4;spacingRight=4;overflow=hidden;rotatable=0;points=[[0,0.5],[1,0.5]];portConstraint=eastwest;fontStyle=0" vertex="1" parent="Uabi-TmTKqP2fMyp2ywP-60">
          <mxGeometry y="90" width="160" height="26" as="geometry" />
        </mxCell>
        <mxCell id="Uabi-TmTKqP2fMyp2ywP-137" value="+ phone()" style="text;html=1;align=left;verticalAlign=middle;resizable=0;points=[];autosize=1;strokeColor=none;fillColor=none;" vertex="1" parent="Uabi-TmTKqP2fMyp2ywP-60">
          <mxGeometry y="116" width="160" height="30" as="geometry" />
        </mxCell>
        <mxCell id="Uabi-TmTKqP2fMyp2ywP-75" value="Birthday(Field)" style="swimlane;fontStyle=0;align=center;verticalAlign=top;childLayout=stackLayout;horizontal=1;startSize=26;horizontalStack=0;resizeParent=1;resizeLast=0;collapsible=1;marginBottom=0;rounded=0;shadow=0;strokeWidth=1;" vertex="1" parent="WIyWlLk6GJQsqaUBKTNV-1">
          <mxGeometry x="320" y="690" width="160" height="160" as="geometry">
            <mxRectangle x="130" y="380" width="160" height="26" as="alternateBounds" />
          </mxGeometry>
        </mxCell>
        <mxCell id="Uabi-TmTKqP2fMyp2ywP-76" value="+ birthday" style="text;align=left;verticalAlign=top;spacingLeft=4;spacingRight=4;overflow=hidden;rotatable=0;points=[[0,0.5],[1,0.5]];portConstraint=eastwest;" vertex="1" parent="Uabi-TmTKqP2fMyp2ywP-75">
          <mxGeometry y="26" width="160" height="26" as="geometry" />
        </mxCell>
        <mxCell id="Uabi-TmTKqP2fMyp2ywP-81" value="" style="line;html=1;strokeWidth=1;align=left;verticalAlign=middle;spacingTop=-1;spacingLeft=3;spacingRight=3;rotatable=0;labelPosition=right;points=[];portConstraint=eastwest;" vertex="1" parent="Uabi-TmTKqP2fMyp2ywP-75">
          <mxGeometry y="52" width="160" height="8" as="geometry" />
        </mxCell>
        <mxCell id="Uabi-TmTKqP2fMyp2ywP-82" value="+ init()" style="text;html=1;align=left;verticalAlign=middle;resizable=0;points=[];autosize=1;strokeColor=none;fillColor=none;" vertex="1" parent="Uabi-TmTKqP2fMyp2ywP-75">
          <mxGeometry y="60" width="160" height="30" as="geometry" />
        </mxCell>
        <mxCell id="Uabi-TmTKqP2fMyp2ywP-83" value="+ birthday()" style="text;align=left;verticalAlign=top;spacingLeft=4;spacingRight=4;overflow=hidden;rotatable=0;points=[[0,0.5],[1,0.5]];portConstraint=eastwest;" vertex="1" parent="Uabi-TmTKqP2fMyp2ywP-75">
          <mxGeometry y="90" width="160" height="26" as="geometry" />
        </mxCell>
        <mxCell id="Uabi-TmTKqP2fMyp2ywP-84" value="+ repr()" style="text;align=left;verticalAlign=top;spacingLeft=4;spacingRight=4;overflow=hidden;rotatable=0;points=[[0,0.5],[1,0.5]];portConstraint=eastwest;fontStyle=0" vertex="1" parent="Uabi-TmTKqP2fMyp2ywP-75">
          <mxGeometry y="116" width="160" height="26" as="geometry" />
        </mxCell>
        <mxCell id="Uabi-TmTKqP2fMyp2ywP-90" value="Email(Field)" style="swimlane;fontStyle=0;align=center;verticalAlign=top;childLayout=stackLayout;horizontal=1;startSize=26;horizontalStack=0;resizeParent=1;resizeLast=0;collapsible=1;marginBottom=0;rounded=0;shadow=0;strokeWidth=1;" vertex="1" parent="WIyWlLk6GJQsqaUBKTNV-1">
          <mxGeometry x="110" y="1220" width="160" height="190" as="geometry">
            <mxRectangle x="130" y="380" width="160" height="26" as="alternateBounds" />
          </mxGeometry>
        </mxCell>
        <mxCell id="Uabi-TmTKqP2fMyp2ywP-93" value="+ email" style="text;align=left;verticalAlign=top;spacingLeft=4;spacingRight=4;overflow=hidden;rotatable=0;points=[[0,0.5],[1,0.5]];portConstraint=eastwest;fontStyle=0" vertex="1" parent="Uabi-TmTKqP2fMyp2ywP-90">
          <mxGeometry y="26" width="160" height="22" as="geometry" />
        </mxCell>
        <mxCell id="Uabi-TmTKqP2fMyp2ywP-96" value="" style="line;html=1;strokeWidth=1;align=left;verticalAlign=middle;spacingTop=-1;spacingLeft=3;spacingRight=3;rotatable=0;labelPosition=right;points=[];portConstraint=eastwest;" vertex="1" parent="Uabi-TmTKqP2fMyp2ywP-90">
          <mxGeometry y="48" width="160" height="8" as="geometry" />
        </mxCell>
        <mxCell id="Uabi-TmTKqP2fMyp2ywP-97" value="+ init()" style="text;html=1;align=left;verticalAlign=middle;resizable=0;points=[];autosize=1;strokeColor=none;fillColor=none;" vertex="1" parent="Uabi-TmTKqP2fMyp2ywP-90">
          <mxGeometry y="56" width="160" height="30" as="geometry" />
        </mxCell>
        <mxCell id="Uabi-TmTKqP2fMyp2ywP-98" value="+ email()" style="text;align=left;verticalAlign=top;spacingLeft=4;spacingRight=4;overflow=hidden;rotatable=0;points=[[0,0.5],[1,0.5]];portConstraint=eastwest;" vertex="1" parent="Uabi-TmTKqP2fMyp2ywP-90">
          <mxGeometry y="86" width="160" height="26" as="geometry" />
        </mxCell>
        <mxCell id="Uabi-TmTKqP2fMyp2ywP-99" value="+ repr()" style="text;align=left;verticalAlign=top;spacingLeft=4;spacingRight=4;overflow=hidden;rotatable=0;points=[[0,0.5],[1,0.5]];portConstraint=eastwest;fontStyle=0" vertex="1" parent="Uabi-TmTKqP2fMyp2ywP-90">
          <mxGeometry y="112" width="160" height="26" as="geometry" />
        </mxCell>
        <mxCell id="Uabi-TmTKqP2fMyp2ywP-100" value="+ str()" style="text;align=left;verticalAlign=top;spacingLeft=4;spacingRight=4;overflow=hidden;rotatable=0;points=[[0,0.5],[1,0.5]];portConstraint=eastwest;fontStyle=0" vertex="1" parent="Uabi-TmTKqP2fMyp2ywP-90">
          <mxGeometry y="138" width="160" height="20" as="geometry" />
        </mxCell>
        <mxCell id="Uabi-TmTKqP2fMyp2ywP-101" value="+ format()" style="text;align=left;verticalAlign=top;spacingLeft=4;spacingRight=4;overflow=hidden;rotatable=0;points=[[0,0.5],[1,0.5]];portConstraint=eastwest;fontStyle=0" vertex="1" parent="Uabi-TmTKqP2fMyp2ywP-90">
          <mxGeometry y="158" width="160" height="22" as="geometry" />
        </mxCell>
        <mxCell id="Uabi-TmTKqP2fMyp2ywP-105" value="Name(Field)" style="swimlane;fontStyle=0;align=center;verticalAlign=top;childLayout=stackLayout;horizontal=1;startSize=26;horizontalStack=0;resizeParent=1;resizeLast=0;collapsible=1;marginBottom=0;rounded=0;shadow=0;strokeWidth=1;" vertex="1" parent="WIyWlLk6GJQsqaUBKTNV-1">
          <mxGeometry x="320" y="430" width="160" height="170" as="geometry">
            <mxRectangle x="130" y="380" width="160" height="26" as="alternateBounds" />
          </mxGeometry>
        </mxCell>
        <mxCell id="Uabi-TmTKqP2fMyp2ywP-106" value="+ name" style="text;align=left;verticalAlign=top;spacingLeft=4;spacingRight=4;overflow=hidden;rotatable=0;points=[[0,0.5],[1,0.5]];portConstraint=eastwest;" vertex="1" parent="Uabi-TmTKqP2fMyp2ywP-105">
          <mxGeometry y="26" width="160" height="26" as="geometry" />
        </mxCell>
        <mxCell id="Uabi-TmTKqP2fMyp2ywP-111" value="" style="line;html=1;strokeWidth=1;align=left;verticalAlign=middle;spacingTop=-1;spacingLeft=3;spacingRight=3;rotatable=0;labelPosition=right;points=[];portConstraint=eastwest;" vertex="1" parent="Uabi-TmTKqP2fMyp2ywP-105">
          <mxGeometry y="52" width="160" height="8" as="geometry" />
        </mxCell>
        <mxCell id="Uabi-TmTKqP2fMyp2ywP-112" value="+ init()" style="text;html=1;align=left;verticalAlign=middle;resizable=0;points=[];autosize=1;strokeColor=none;fillColor=none;" vertex="1" parent="Uabi-TmTKqP2fMyp2ywP-105">
          <mxGeometry y="60" width="160" height="30" as="geometry" />
        </mxCell>
        <mxCell id="Uabi-TmTKqP2fMyp2ywP-113" value="+ name()" style="text;align=left;verticalAlign=top;spacingLeft=4;spacingRight=4;overflow=hidden;rotatable=0;points=[[0,0.5],[1,0.5]];portConstraint=eastwest;" vertex="1" parent="Uabi-TmTKqP2fMyp2ywP-105">
          <mxGeometry y="90" width="160" height="26" as="geometry" />
        </mxCell>
        <mxCell id="Uabi-TmTKqP2fMyp2ywP-114" value="+ repr()" style="text;align=left;verticalAlign=top;spacingLeft=4;spacingRight=4;overflow=hidden;rotatable=0;points=[[0,0.5],[1,0.5]];portConstraint=eastwest;fontStyle=0" vertex="1" parent="Uabi-TmTKqP2fMyp2ywP-105">
          <mxGeometry y="116" width="160" height="26" as="geometry" />
        </mxCell>
        <mxCell id="Uabi-TmTKqP2fMyp2ywP-120" value="Address(Field)" style="swimlane;fontStyle=0;align=center;verticalAlign=top;childLayout=stackLayout;horizontal=1;startSize=26;horizontalStack=0;resizeParent=1;resizeLast=0;collapsible=1;marginBottom=0;rounded=0;shadow=0;strokeWidth=1;" vertex="1" parent="WIyWlLk6GJQsqaUBKTNV-1">
          <mxGeometry x="280" y="900" width="160" height="360" as="geometry">
            <mxRectangle x="130" y="380" width="160" height="26" as="alternateBounds" />
          </mxGeometry>
        </mxCell>
        <mxCell id="Uabi-TmTKqP2fMyp2ywP-121" value="+ town" style="text;align=left;verticalAlign=top;spacingLeft=4;spacingRight=4;overflow=hidden;rotatable=0;points=[[0,0.5],[1,0.5]];portConstraint=eastwest;" vertex="1" parent="Uabi-TmTKqP2fMyp2ywP-120">
          <mxGeometry y="26" width="160" height="26" as="geometry" />
        </mxCell>
        <mxCell id="Uabi-TmTKqP2fMyp2ywP-122" value="+ street&#xa;" style="text;align=left;verticalAlign=top;spacingLeft=4;spacingRight=4;overflow=hidden;rotatable=0;points=[[0,0.5],[1,0.5]];portConstraint=eastwest;rounded=0;shadow=0;html=0;" vertex="1" parent="Uabi-TmTKqP2fMyp2ywP-120">
          <mxGeometry y="52" width="160" height="20" as="geometry" />
        </mxCell>
        <mxCell id="Uabi-TmTKqP2fMyp2ywP-123" value="+ building" style="text;align=left;verticalAlign=top;spacingLeft=4;spacingRight=4;overflow=hidden;rotatable=0;points=[[0,0.5],[1,0.5]];portConstraint=eastwest;fontStyle=0" vertex="1" parent="Uabi-TmTKqP2fMyp2ywP-120">
          <mxGeometry y="72" width="160" height="22" as="geometry" />
        </mxCell>
        <mxCell id="Uabi-TmTKqP2fMyp2ywP-124" value="+ apartment" style="text;align=left;verticalAlign=top;spacingLeft=4;spacingRight=4;overflow=hidden;rotatable=0;points=[[0,0.5],[1,0.5]];portConstraint=eastwest;fontStyle=0" vertex="1" parent="Uabi-TmTKqP2fMyp2ywP-120">
          <mxGeometry y="94" width="160" height="20" as="geometry" />
        </mxCell>
        <mxCell id="Uabi-TmTKqP2fMyp2ywP-126" value="" style="line;html=1;strokeWidth=1;align=left;verticalAlign=middle;spacingTop=-1;spacingLeft=3;spacingRight=3;rotatable=0;labelPosition=right;points=[];portConstraint=eastwest;" vertex="1" parent="Uabi-TmTKqP2fMyp2ywP-120">
          <mxGeometry y="114" width="160" height="8" as="geometry" />
        </mxCell>
        <mxCell id="Uabi-TmTKqP2fMyp2ywP-127" value="+ init()" style="text;html=1;align=left;verticalAlign=middle;resizable=0;points=[];autosize=1;strokeColor=none;fillColor=none;" vertex="1" parent="Uabi-TmTKqP2fMyp2ywP-120">
          <mxGeometry y="122" width="160" height="30" as="geometry" />
        </mxCell>
        <mxCell id="Uabi-TmTKqP2fMyp2ywP-128" value="+ town()" style="text;align=left;verticalAlign=top;spacingLeft=4;spacingRight=4;overflow=hidden;rotatable=0;points=[[0,0.5],[1,0.5]];portConstraint=eastwest;" vertex="1" parent="Uabi-TmTKqP2fMyp2ywP-120">
          <mxGeometry y="152" width="160" height="26" as="geometry" />
        </mxCell>
        <mxCell id="Uabi-TmTKqP2fMyp2ywP-129" value="+ street()" style="text;align=left;verticalAlign=top;spacingLeft=4;spacingRight=4;overflow=hidden;rotatable=0;points=[[0,0.5],[1,0.5]];portConstraint=eastwest;fontStyle=0" vertex="1" parent="Uabi-TmTKqP2fMyp2ywP-120">
          <mxGeometry y="178" width="160" height="26" as="geometry" />
        </mxCell>
        <mxCell id="Uabi-TmTKqP2fMyp2ywP-130" value="+ building()" style="text;align=left;verticalAlign=top;spacingLeft=4;spacingRight=4;overflow=hidden;rotatable=0;points=[[0,0.5],[1,0.5]];portConstraint=eastwest;fontStyle=0" vertex="1" parent="Uabi-TmTKqP2fMyp2ywP-120">
          <mxGeometry y="204" width="160" height="20" as="geometry" />
        </mxCell>
        <mxCell id="Uabi-TmTKqP2fMyp2ywP-131" value="+ apartment()" style="text;align=left;verticalAlign=top;spacingLeft=4;spacingRight=4;overflow=hidden;rotatable=0;points=[[0,0.5],[1,0.5]];portConstraint=eastwest;fontStyle=0" vertex="1" parent="Uabi-TmTKqP2fMyp2ywP-120">
          <mxGeometry y="224" width="160" height="22" as="geometry" />
        </mxCell>
        <mxCell id="Uabi-TmTKqP2fMyp2ywP-132" value="+ repr()" style="text;align=left;verticalAlign=top;spacingLeft=4;spacingRight=4;overflow=hidden;rotatable=0;points=[[0,0.5],[1,0.5]];portConstraint=eastwest;rounded=0;shadow=0;html=0;" vertex="1" parent="Uabi-TmTKqP2fMyp2ywP-120">
          <mxGeometry y="246" width="160" height="20" as="geometry" />
        </mxCell>
        <mxCell id="Uabi-TmTKqP2fMyp2ywP-133" value="+ format()" style="text;align=left;verticalAlign=top;spacingLeft=4;spacingRight=4;overflow=hidden;rotatable=0;points=[[0,0.5],[1,0.5]];portConstraint=eastwest;" vertex="1" parent="Uabi-TmTKqP2fMyp2ywP-120">
          <mxGeometry y="266" width="160" height="26" as="geometry" />
        </mxCell>
        <mxCell id="Uabi-TmTKqP2fMyp2ywP-134" value="+ days_to_birthday()&#xa;" style="text;align=left;verticalAlign=top;spacingLeft=4;spacingRight=4;overflow=hidden;rotatable=0;points=[[0,0.5],[1,0.5]];portConstraint=eastwest;rounded=0;shadow=0;html=0;" vertex="1" parent="Uabi-TmTKqP2fMyp2ywP-120">
          <mxGeometry y="292" width="160" height="32" as="geometry" />
        </mxCell>
        <mxCell id="Uabi-TmTKqP2fMyp2ywP-135" value="" style="endArrow=classic;html=1;rounded=0;exitX=0.044;exitY=-0.003;exitDx=0;exitDy=0;exitPerimeter=0;entryX=0.006;entryY=0.162;entryDx=0;entryDy=0;entryPerimeter=0;" edge="1" parent="WIyWlLk6GJQsqaUBKTNV-1" source="Uabi-TmTKqP2fMyp2ywP-13" target="Uabi-TmTKqP2fMyp2ywP-60">
          <mxGeometry width="50" height="50" relative="1" as="geometry">
            <mxPoint x="-220" y="490" as="sourcePoint" />
            <mxPoint x="140" y="550" as="targetPoint" />
            <Array as="points">
              <mxPoint x="-20" y="660" />
            </Array>
          </mxGeometry>
        </mxCell>
        <mxCell id="Uabi-TmTKqP2fMyp2ywP-136" value="" style="endArrow=classic;html=1;rounded=0;entryX=0.019;entryY=0.044;entryDx=0;entryDy=0;entryPerimeter=0;exitX=0.75;exitY=0;exitDx=0;exitDy=0;" edge="1" parent="WIyWlLk6GJQsqaUBKTNV-1" source="Uabi-TmTKqP2fMyp2ywP-13" target="Uabi-TmTKqP2fMyp2ywP-105">
          <mxGeometry width="50" height="50" relative="1" as="geometry">
            <mxPoint x="-220" y="490" as="sourcePoint" />
            <mxPoint x="-170" y="440" as="targetPoint" />
          </mxGeometry>
        </mxCell>
        <mxCell id="Uabi-TmTKqP2fMyp2ywP-138" value="" style="endArrow=classic;html=1;rounded=0;entryX=-0.019;entryY=0.088;entryDx=0;entryDy=0;entryPerimeter=0;exitX=1.013;exitY=0.019;exitDx=0;exitDy=0;exitPerimeter=0;" edge="1" parent="WIyWlLk6GJQsqaUBKTNV-1" source="Uabi-TmTKqP2fMyp2ywP-13" target="Uabi-TmTKqP2fMyp2ywP-75">
          <mxGeometry width="50" height="50" relative="1" as="geometry">
            <mxPoint x="160" y="810" as="sourcePoint" />
            <mxPoint x="-170" y="670" as="targetPoint" />
          </mxGeometry>
        </mxCell>
        <mxCell id="Uabi-TmTKqP2fMyp2ywP-139" value="" style="endArrow=classic;html=1;rounded=0;entryX=0.006;entryY=0.039;entryDx=0;entryDy=0;entryPerimeter=0;exitX=0.988;exitY=0.036;exitDx=0;exitDy=0;exitPerimeter=0;" edge="1" parent="WIyWlLk6GJQsqaUBKTNV-1" source="Uabi-TmTKqP2fMyp2ywP-13" target="Uabi-TmTKqP2fMyp2ywP-120">
          <mxGeometry width="50" height="50" relative="1" as="geometry">
            <mxPoint x="160" y="810" as="sourcePoint" />
            <mxPoint x="-170" y="790" as="targetPoint" />
          </mxGeometry>
        </mxCell>
        <mxCell id="Uabi-TmTKqP2fMyp2ywP-140" value="" style="endArrow=classic;html=1;rounded=0;entryX=0.95;entryY=-0.021;entryDx=0;entryDy=0;entryPerimeter=0;exitX=1.019;exitY=0.042;exitDx=0;exitDy=0;exitPerimeter=0;" edge="1" parent="WIyWlLk6GJQsqaUBKTNV-1" source="Uabi-TmTKqP2fMyp2ywP-13" target="Uabi-TmTKqP2fMyp2ywP-90">
          <mxGeometry width="50" height="50" relative="1" as="geometry">
            <mxPoint x="-220" y="840" as="sourcePoint" />
            <mxPoint x="-170" y="790" as="targetPoint" />
          </mxGeometry>
        </mxCell>
        <mxCell id="Uabi-TmTKqP2fMyp2ywP-164" value="" style="endArrow=classic;html=1;rounded=0;entryX=1.025;entryY=0.093;entryDx=0;entryDy=0;entryPerimeter=0;" edge="1" parent="WIyWlLk6GJQsqaUBKTNV-1" target="Uabi-TmTKqP2fMyp2ywP-167">
          <mxGeometry width="50" height="50" relative="1" as="geometry">
            <mxPoint x="-490" y="530" as="sourcePoint" />
            <mxPoint x="-630" y="420" as="targetPoint" />
          </mxGeometry>
        </mxCell>
        <mxCell id="Uabi-TmTKqP2fMyp2ywP-167" value="Tag" style="swimlane;fontStyle=0;align=center;verticalAlign=top;childLayout=stackLayout;horizontal=1;startSize=26;horizontalStack=0;resizeParent=1;resizeLast=0;collapsible=1;marginBottom=0;rounded=0;shadow=0;strokeWidth=1;" vertex="1" parent="WIyWlLk6GJQsqaUBKTNV-1">
          <mxGeometry x="-860" y="420" width="160" height="150" as="geometry">
            <mxRectangle x="130" y="380" width="160" height="26" as="alternateBounds" />
          </mxGeometry>
        </mxCell>
        <mxCell id="Uabi-TmTKqP2fMyp2ywP-168" value="+ tag" style="text;align=left;verticalAlign=top;spacingLeft=4;spacingRight=4;overflow=hidden;rotatable=0;points=[[0,0.5],[1,0.5]];portConstraint=eastwest;" vertex="1" parent="Uabi-TmTKqP2fMyp2ywP-167">
          <mxGeometry y="26" width="160" height="26" as="geometry" />
        </mxCell>
        <mxCell id="Uabi-TmTKqP2fMyp2ywP-169" value="" style="line;html=1;strokeWidth=1;align=left;verticalAlign=middle;spacingTop=-1;spacingLeft=3;spacingRight=3;rotatable=0;labelPosition=right;points=[];portConstraint=eastwest;" vertex="1" parent="Uabi-TmTKqP2fMyp2ywP-167">
          <mxGeometry y="52" width="160" height="8" as="geometry" />
        </mxCell>
        <mxCell id="Uabi-TmTKqP2fMyp2ywP-170" value="+ note()" style="text;align=left;verticalAlign=top;spacingLeft=4;spacingRight=4;overflow=hidden;rotatable=0;points=[[0,0.5],[1,0.5]];portConstraint=eastwest;fontStyle=0" vertex="1" parent="Uabi-TmTKqP2fMyp2ywP-167">
          <mxGeometry y="60" width="160" height="26" as="geometry" />
        </mxCell>
        <mxCell id="Uabi-TmTKqP2fMyp2ywP-171" value="+ add_tag()" style="text;align=left;verticalAlign=top;spacingLeft=4;spacingRight=4;overflow=hidden;rotatable=0;points=[[0,0.5],[1,0.5]];portConstraint=eastwest;" vertex="1" parent="Uabi-TmTKqP2fMyp2ywP-167">
          <mxGeometry y="86" width="160" height="26" as="geometry" />
        </mxCell>
        <mxCell id="Uabi-TmTKqP2fMyp2ywP-172" value="+ repr()" style="text;align=left;verticalAlign=top;spacingLeft=4;spacingRight=4;overflow=hidden;rotatable=0;points=[[0,0.5],[1,0.5]];portConstraint=eastwest;" vertex="1" parent="Uabi-TmTKqP2fMyp2ywP-167">
          <mxGeometry y="112" width="160" height="26" as="geometry" />
        </mxCell>
        <mxCell id="Uabi-TmTKqP2fMyp2ywP-173" value="Notebook(UserList)" style="swimlane;fontStyle=0;align=center;verticalAlign=top;childLayout=stackLayout;horizontal=1;startSize=40;horizontalStack=0;resizeParent=1;resizeLast=0;collapsible=1;marginBottom=0;rounded=0;shadow=0;strokeWidth=1;" vertex="1" parent="WIyWlLk6GJQsqaUBKTNV-1">
          <mxGeometry x="-630" y="10" width="220" height="360" as="geometry">
            <mxRectangle x="340" y="380" width="170" height="26" as="alternateBounds" />
          </mxGeometry>
        </mxCell>
        <mxCell id="Uabi-TmTKqP2fMyp2ywP-174" value="" style="line;html=1;strokeWidth=1;align=left;verticalAlign=middle;spacingTop=-1;spacingLeft=3;spacingRight=3;rotatable=0;labelPosition=right;points=[];portConstraint=eastwest;" vertex="1" parent="Uabi-TmTKqP2fMyp2ywP-173">
          <mxGeometry y="40" width="220" height="8" as="geometry" />
        </mxCell>
        <mxCell id="Uabi-TmTKqP2fMyp2ywP-175" value="+ init()" style="text;align=left;verticalAlign=top;spacingLeft=4;spacingRight=4;overflow=hidden;rotatable=0;points=[[0,0.5],[1,0.5]];portConstraint=eastwest;" vertex="1" parent="Uabi-TmTKqP2fMyp2ywP-173">
          <mxGeometry y="48" width="220" height="26" as="geometry" />
        </mxCell>
        <mxCell id="Uabi-TmTKqP2fMyp2ywP-176" value="+ add_record()" style="text;align=left;verticalAlign=top;spacingLeft=4;spacingRight=4;overflow=hidden;rotatable=0;points=[[0,0.5],[1,0.5]];portConstraint=eastwest;fontStyle=0" vertex="1" parent="Uabi-TmTKqP2fMyp2ywP-173">
          <mxGeometry y="74" width="220" height="30" as="geometry" />
        </mxCell>
        <mxCell id="Uabi-TmTKqP2fMyp2ywP-177" value="+ remove_record()&#xa;" style="text;align=left;verticalAlign=top;spacingLeft=4;spacingRight=4;overflow=hidden;rotatable=0;points=[[0,0.5],[1,0.5]];portConstraint=eastwest;rounded=0;shadow=0;html=0;" vertex="1" parent="Uabi-TmTKqP2fMyp2ywP-173">
          <mxGeometry y="104" width="220" height="32" as="geometry" />
        </mxCell>
        <mxCell id="Uabi-TmTKqP2fMyp2ywP-178" value="+ edit_record()" style="text;align=left;verticalAlign=top;spacingLeft=4;spacingRight=4;overflow=hidden;rotatable=0;points=[[0,0.5],[1,0.5]];portConstraint=eastwest;" vertex="1" parent="Uabi-TmTKqP2fMyp2ywP-173">
          <mxGeometry y="136" width="220" height="26" as="geometry" />
        </mxCell>
        <mxCell id="Uabi-TmTKqP2fMyp2ywP-179" value="+ search_by_tag()" style="text;align=left;verticalAlign=top;spacingLeft=4;spacingRight=4;overflow=hidden;rotatable=0;points=[[0,0.5],[1,0.5]];portConstraint=eastwest;rounded=0;shadow=0;html=0;" vertex="1" parent="Uabi-TmTKqP2fMyp2ywP-173">
          <mxGeometry y="162" width="220" height="28" as="geometry" />
        </mxCell>
        <mxCell id="Uabi-TmTKqP2fMyp2ywP-180" value="+ list_records()" style="text;align=left;verticalAlign=top;spacingLeft=4;spacingRight=4;overflow=hidden;rotatable=0;points=[[0,0.5],[1,0.5]];portConstraint=eastwest;fontStyle=0" vertex="1" parent="Uabi-TmTKqP2fMyp2ywP-173">
          <mxGeometry y="190" width="220" height="22" as="geometry" />
        </mxCell>
        <mxCell id="Uabi-TmTKqP2fMyp2ywP-181" value="+ save_to_file&#xa;()" style="text;align=left;verticalAlign=top;spacingLeft=4;spacingRight=4;overflow=hidden;rotatable=0;points=[[0,0.5],[1,0.5]];portConstraint=eastwest;fontStyle=0" vertex="1" parent="Uabi-TmTKqP2fMyp2ywP-173">
          <mxGeometry y="212" width="220" height="30" as="geometry" />
        </mxCell>
        <mxCell id="Uabi-TmTKqP2fMyp2ywP-182" value="+ normalize()" style="text;align=left;verticalAlign=top;spacingLeft=4;spacingRight=4;overflow=hidden;rotatable=0;points=[[0,0.5],[1,0.5]];portConstraint=eastwest;" vertex="1" parent="Uabi-TmTKqP2fMyp2ywP-173">
          <mxGeometry y="242" width="220" height="26" as="geometry" />
        </mxCell>
        <mxCell id="Uabi-TmTKqP2fMyp2ywP-183" value="+ rename_files_in_folder()" style="text;align=left;verticalAlign=top;spacingLeft=4;spacingRight=4;overflow=hidden;rotatable=0;points=[[0,0.5],[1,0.5]];portConstraint=eastwest;fontStyle=0" vertex="1" parent="Uabi-TmTKqP2fMyp2ywP-173">
          <mxGeometry y="268" width="220" height="30" as="geometry" />
        </mxCell>
        <mxCell id="Uabi-TmTKqP2fMyp2ywP-184" value="+ rename_all_files_in_all_folders()" style="text;align=left;verticalAlign=top;spacingLeft=4;spacingRight=4;overflow=hidden;rotatable=0;points=[[0,0.5],[1,0.5]];portConstraint=eastwest;fontStyle=0" vertex="1" parent="Uabi-TmTKqP2fMyp2ywP-173">
          <mxGeometry y="298" width="220" height="22" as="geometry" />
        </mxCell>
        <mxCell id="Uabi-TmTKqP2fMyp2ywP-185" value="+ run()" style="text;align=left;verticalAlign=top;spacingLeft=4;spacingRight=4;overflow=hidden;rotatable=0;points=[[0,0.5],[1,0.5]];portConstraint=eastwest;rounded=0;shadow=0;html=0;" vertex="1" parent="Uabi-TmTKqP2fMyp2ywP-173">
          <mxGeometry y="320" width="220" height="32" as="geometry" />
        </mxCell>
      </root>
    </mxGraphModel>
  </diagram>
</mxfile>
